<!DOCTYPE svg PUBLIC "-//W3C//DTD SVG 1.1//EN" "http://www.w3.org/Graphics/SVG/1.1/DTD/svg11.dtd">
<svg xmlns="http://www.w3.org/2000/svg" xmlns:xlink="http://www.w3.org/1999/xlink" width="849px" height="882px" version="1.1">
    <defs/>
    <g transform="translate(0.5,0.5)">
        <rect x="46" y="91.5" width="200" height="269" fill="#dae8fc" stroke="#6c8ebf" stroke-width="2" pointer-events="none" />
        <rect x="101" y="450" width="630" height="351" fill="#dae8fc" stroke="#6c8ebf" stroke-width="2" pointer-events="none" />
        <rect x="282.5" y="519" width="120" height="60" fill="#ffffff" stroke="#000000" stroke-width="2" pointer-events="none" />
        <g fill="#000000" font-family="Helvetica" text-anchor="middle" font-size="14px">
            <text x="341.5" y="544.5">Variant-</text>
            <text x="341.5" y="561.5">Classification</text>
        </g>
        <rect x="136" y="618" width="120" height="60" fill="#ffffff" stroke="#000000" stroke-width="2" pointer-events="none" />
        <g fill="#000000" font-family="Helvetica" text-anchor="middle" font-size="14px">
            <text x="195" y="652">Therapy</text>
        </g>
        <path d="M 31 690.5 L 91 690.5 L 121 710.5 L 91 730.5 L 31 730.5 L 1 710.5 Z" fill="#fff2cc" stroke="#d6b656" stroke-width="2"
            stroke-miterlimit="10" pointer-events="none" />
        <g transform="translate(38.5,702.5)">
            <text x="22" y="14" fill="#000000" text-anchor="middle" font-size="14px" font-family="Helvetica">AliasOf</text>
        </g>
        <path d="M 31 636 L 91 636 L 121 656 L 91 676 L 31 676 L 1 656 Z" fill="#fff2cc" stroke="#d6b656" stroke-width="2" stroke-miterlimit="10"
            pointer-events="none" />
        <g transform="translate(16.5,648.5)">
            <text x="44" y="14" fill="#000000" text-anchor="middle" font-size="14px" font-family="Helvetica">DeprecatedBy</text>
        </g>
        <rect x="486" y="71" width="120" height="60" fill="#ffffff" stroke="#000000" stroke-width="2" pointer-events="none" />
        <g fill="#000000" font-family="Helvetica" text-anchor="middle" font-size="14px">
            <text x="545" y="105">Statement</text>
        </g>
        <rect x="311" y="196" width="120" height="60" fill="#dae8fc" stroke="#6c8ebf" stroke-width="2" pointer-events="none" />
        <g fill="#000000" font-family="Helvetica" text-anchor="middle" font-size="14px">
            <text x="370" y="230">BioMarker</text>
        </g>
        <path d="M 371 256 L 371 450" fill="none" stroke="#6c8ebf" stroke-width="4" stroke-miterlimit="10" pointer-events="none"
        />
        <path d="M 311 1 L 371 1 L 401 21 L 371 41 L 311 41 L 281 21 Z" fill="#fff2cc" stroke="#d6b656" stroke-width="2" stroke-miterlimit="10"
            pointer-events="none" />
        <g transform="translate(318.5,13.5)">
            <text x="22" y="14" fill="#000000" text-anchor="middle" font-size="14px" font-family="Helvetica">Implies</text>
        </g>
        <path d="M 611 111 L 671 111 L 701 131 L 671 151 L 611 151 L 581 131 Z" fill="#fff2cc" stroke="#d6b656" stroke-width="2"
            stroke-miterlimit="10" pointer-events="none" />
        <g transform="translate(600.5,123.5)">
            <text x="40" y="14" fill="#000000" text-anchor="middle" font-size="14px" font-family="Helvetica">SupportedBy</text>
        </g>
        <path d="M 641 151 L 642 310" fill="none" stroke="#000000" stroke-miterlimit="10" pointer-events="none" />
        <path d="M 46 341 L 106 341 L 136 361.5 L 106 382 L 46 382 L 16 361.5 Z" fill="#fff2cc" stroke="#d6b656" stroke-width="2"
            stroke-miterlimit="10" pointer-events="none" />
        <g transform="translate(57.5,353.5)">
            <text x="18" y="14" fill="#000000" text-anchor="middle" font-size="14px" font-family="Helvetica">Infers</text>
        </g>
        <rect x="282.5" y="618" width="120" height="60" fill="#ffffff" stroke="#000000" stroke-width="2" pointer-events="none" />
        <g fill="#000000" font-family="Helvetica" text-anchor="middle" font-size="14px">
            <text x="341.5" y="652">Pathway</text>
        </g>
        <rect x="580.5" y="328" width="121" height="20" fill="#ffffff" stroke="none" pointer-events="none" />
        <g transform="translate(612.5,330.5)">
            <text x="28" y="14" fill="#000000" text-anchor="middle" font-size="14px" font-family="Helvetica">Evidence</text>
        </g>
        <rect x="578.5" y="519" width="120" height="60" fill="#ffffff" stroke="#000000" stroke-width="2" pointer-events="none" />
        <g fill="#000000" font-family="Helvetica" text-anchor="middle" font-size="14px">
            <text x="637.5" y="553">Publication</text>
        </g>
        <rect x="578.5" y="618" width="120" height="60" fill="#ffffff" stroke="#000000" stroke-width="2" pointer-events="none" />
        <g fill="#000000" font-family="Helvetica" text-anchor="middle" font-size="14px">
            <text x="637.5" y="652">ClinicalTrial</text>
        </g>
        <rect x="342.5" y="467.5" width="147" height="20" fill="#ffffff" stroke="none" pointer-events="none" />
        <g transform="translate(388.5,470.5)">
            <text x="28" y="14" fill="#000000" text-anchor="middle" font-size="14px" font-family="Helvetica">Ontology</text>
        </g>
        <path d="M 31 581 L 91 581 L 121 601 L 91 621 L 31 621 L 1 601 Z" fill="#fff2cc" stroke="#d6b656" stroke-width="2" stroke-miterlimit="10"
            pointer-events="none" />
        <g transform="translate(28.5,593.5)">
            <text x="32" y="14" fill="#000000" text-anchor="middle" font-size="14px" font-family="Helvetica">ElementOf</text>
        </g>
        <path d="M 31 525.5 L 91 525.5 L 121 545.5 L 91 565.5 L 31 565.5 L 1 545.5 Z" fill="#fff2cc" stroke="#d6b656" stroke-width="2"
            stroke-miterlimit="10" pointer-events="none" />
        <g transform="translate(24.5,537.5)">
            <text x="36" y="14" fill="#000000" text-anchor="middle" font-size="14px" font-family="Helvetica">SubclassOf</text>
        </g>
        <rect x="136" y="519" width="120" height="60" fill="#ffffff" stroke="#000000" stroke-width="2" pointer-events="none" />
        <g fill="#000000" font-family="Helvetica" text-anchor="middle" font-size="14px">
            <text x="195" y="553">Feature</text>
        </g>
        <rect x="431" y="519" width="120" height="60" fill="#ffffff" stroke="#000000" stroke-width="2" pointer-events="none" />
        <g fill="#000000" font-family="Helvetica" text-anchor="middle" font-size="14px">
            <text x="490" y="553">Relevance</text>
        </g>
        <rect x="83" y="251.5" width="120" height="60" fill="#ffffff" stroke="#000000" stroke-width="2" pointer-events="none" />
        <g fill="#000000" font-family="Helvetica" text-anchor="middle" font-size="14px">
            <text x="142" y="277">Positional</text>
            <text x="142" y="294">Variant</text>
        </g>
        <rect x="83" y="161.5" width="120" height="60" fill="#ffffff" stroke="#000000" stroke-width="2" pointer-events="none" />
        <g fill="#000000" font-family="Helvetica" text-anchor="middle" font-size="14px">
            <text x="142" y="187">Category</text>
            <text x="142" y="204">Variant</text>
        </g>
        <rect x="72.5" y="111.5" width="147" height="20" fill="#ffffff" stroke="none" pointer-events="none" />
        <g transform="translate(125.5,114.5)">
            <text x="21" y="14" fill="#000000" text-anchor="middle" font-size="14px" font-family="Helvetica">Variant</text>
        </g>
        <path d="M 311 226 L 246 226" fill="none" stroke="#6c8ebf" stroke-width="4" stroke-miterlimit="10" pointer-events="none"
        />
        <rect x="578.5" y="376.5" width="120" height="60" fill="#ffffff" stroke="#000000" stroke-width="2" pointer-events="none"
        />
        <g transform="translate(615.5,398.5)">

            <text x="22" y="14" fill="#000000" text-anchor="middle" font-size="14px" font-family="Helvetica">Source</text>
        </g>
        <path d="M 31 467.5 L 91 467.5 L 121 487.5 L 91 507.5 L 31 507.5 L 1 487.5 Z" fill="#fff2cc" stroke="#d6b656" stroke-width="2"
            stroke-miterlimit="10" pointer-events="none" />
        <g transform="translate(33.5,479.5)">
            <text x="27" y="14" fill="#000000" text-anchor="middle" font-size="14px" font-family="Helvetica">TargetOf</text>
        </g>
        <path d="M 146 361 L 146 439.88" fill="none" stroke="#000000" stroke-miterlimit="10" stroke-dasharray="3 3" pointer-events="none"
        />
        <path d="M 146 446.88 L 142.5 439.88 L 149.5 439.88 Z" fill="#000000" stroke="#000000" stroke-miterlimit="10" pointer-events="none"
        />
        <g fill="#000000" font-family="Helvetica" text-anchor="middle" font-size="16px">
            <rect fill="#ffffff" stroke="none" x="75" y="396" width="160" height="20" stroke-width="0" />
            <text x="153.5" y="410">reference1/reference2</text>
        </g>
        <rect x="136" y="711" width="120" height="60" fill="#ffffff" stroke="#000000" stroke-width="2" pointer-events="none" />
        <g fill="#000000" font-family="Helvetica" text-anchor="middle" font-size="14px">
            <text x="195" y="745">Signature</text>
        </g>
        <path d="M 416 807.37 L 416 871 L 259 871 L 259 801" fill="none" stroke="#000000" stroke-miterlimit="10" stroke-dasharray="3 3"
            pointer-events="none" />
        <path d="M 416 802.12 L 419.5 809.12 L 416 807.37 L 412.5 809.12 Z" fill="#000000" stroke="#000000" stroke-miterlimit="10"
            pointer-events="none" />
        <g fill="#000000" font-family="Helvetica" text-anchor="middle" font-size="16px">
            <rect fill="#ffffff" stroke="none" x="287" y="863" width="90" height="20" stroke-width="0" />
            <text x="331" y="877">dependency</text>
        </g>
        <path d="M 31 746 L 91 746 L 121 766 L 91 786 L 31 786 L 1 766 Z" fill="#fff2cc" stroke="#d6b656" stroke-width="2" stroke-miterlimit="10"
            pointer-events="none" />
        <g transform="translate(44.5,758.5)">
            <text x="16" y="14" fill="#000000" text-anchor="middle" font-size="14px" font-family="Helvetica">Cites</text>
        </g>
        <rect x="578.5" y="711" width="120" height="60" fill="#ffffff" stroke="#000000" stroke-width="2" pointer-events="none" />
        <g fill="#000000" font-family="Helvetica" text-anchor="middle" font-size="14px">
            <text x="637.5" y="745">EvidenceLevel</text>
        </g>
        <path d="M 341 196 L 341 41" fill="none" stroke="#000000" stroke-miterlimit="10" pointer-events="none" />
        <path d="M 401 21 L 546 21 L 546 71" fill="none" stroke="#000000" stroke-miterlimit="10" pointer-events="none" />
        <path d="M 731 626 L 821 626 L 821 407 L 705.37 407" fill="none" stroke="#000000" stroke-miterlimit="10" stroke-dasharray="3 3"
            pointer-events="none" />
        <path d="M 700.12 407 L 707.12 403.5 L 705.37 407 L 707.12 410.5 Z" fill="#000000" stroke="#000000" stroke-miterlimit="10"
            pointer-events="none" />
        <g fill="#3D0000" font-family="Helvetica" text-anchor="middle" font-size="16px">
            <rect fill="#ffffff" stroke="none" x="796" y="511" width="53" height="20" stroke-width="0" />
            <text x="821" y="525">Source</text>
        </g>
        <path d="M 486 101 L 401 101 L 401 184.63" fill="none" stroke="#000000" stroke-miterlimit="10" stroke-dasharray="3 3" pointer-events="none"
        />
        <path d="M 401 189.88 L 397.5 182.88 L 401 184.63 L 404.5 182.88 Z" fill="#000000" stroke="#000000" stroke-miterlimit="10"
            pointer-events="none" />
        <g fill="#3D0000" font-family="Helvetica" text-anchor="middle" font-size="16px">
            <rect fill="#ffffff" stroke="none" x="370" y="133" width="71" height="20" stroke-width="0" />
            <text x="404" y="147">appliesTo</text>
        </g>
        <path d="M 516 131 L 516 514.63" fill="none" stroke="#000000" stroke-miterlimit="10" stroke-dasharray="3 3" pointer-events="none"
        />
        <path d="M 516 519.88 L 512.5 512.88 L 516 514.63 L 519.5 512.88 Z" fill="#000000" stroke="#000000" stroke-miterlimit="10"
            pointer-events="none" />
        <g fill="#3D0000" font-family="Helvetica" text-anchor="middle" font-size="16px">
            <rect fill="#ffffff" stroke="none" x="486" y="231" width="72" height="20" stroke-width="0" />
            <text x="521" y="245">relevance</text>
        </g>
        <rect x="431" y="618" width="120" height="60" fill="#ffffff" stroke="#000000" stroke-width="2" pointer-events="none" />
        <g fill="#000000" font-family="Helvetica" text-anchor="middle" font-size="14px">
            <text x="490" y="652">Disease</text>
        </g>
        <path d="M 246 293 L 313 293 L 313 512.63" fill="none" stroke="#000000" stroke-miterlimit="10" stroke-dasharray="3 3" pointer-events="none"
        />
        <path d="M 313 517.88 L 309.5 510.88 L 313 512.63 L 316.5 510.88 Z" fill="#000000" stroke="#000000" stroke-miterlimit="10"
            pointer-events="none" />
        <g fill="#3D0000" font-family="Helvetica" text-anchor="middle" font-size="16px">
            <rect fill="#ffffff" stroke="none" x="296" y="374" width="33" height="20" stroke-width="0" />
            <text x="311" y="388">type</text>
        </g>
        <rect x="561" y="308" width="190" height="513" fill="none" stroke="#6c8ebf" stroke-width="2" pointer-events="none" />
    </g>
</svg>